<?xml version="1.0"?>
<svg xmlns="http://www.w3.org/2000/svg" xmlns:xlink="http://www.w3.org/1999/xlink" width="285" height="285" viewBox="0 0 128 128"><defs><linearGradient id="a" x1="118.724" y1="118.877" x2="9.276" y2="9.43" gradientUnits="userSpaceOnUse"><stop offset="0" stop-color="#de6246"/><stop offset="1" stop-color="#f4d844"/></linearGradient></defs><path d="M128,21.5v85.528a6.233,6.233,0,0,1-6.226,6.226,1.75,1.75,0,0,1,0-3.5,2.729,2.729,0,0,0,2.726-2.726v-69.9H3.5v69.9a2.729,2.729,0,0,0,2.726,2.726H103.5a1.75,1.75,0,0,1,0,3.5H6.226A6.233,6.233,0,0,1,0,107.026V21.5a6.758,6.758,0,0,1,6.75-6.75H25.376a1.75,1.75,0,0,1,0,3.5H6.75A3.254,3.254,0,0,0,3.5,21.5V33.623h121V21.5a3.254,3.254,0,0,0-3.25-3.25H58.071a1.75,1.75,0,1,1,0-3.5H121.25A6.758,6.758,0,0,1,128,21.5Zm-88.351-3.25H43.8a1.75,1.75,0,0,0,0-3.5H39.649a1.75,1.75,0,1,0,0,3.5Zm10.038,9.438H118.25a1.75,1.75,0,0,0,0-3.5H49.687a1.75,1.75,0,0,0,0,3.5ZM9.75,24.186a1.75,1.75,0,0,0,0,3.5h4.627a1.75,1.75,0,0,0,0-3.5Zm11.562,1.75a1.751,1.751,0,0,0,1.75,1.75h4.627a1.75,1.75,0,0,0,0-3.5H23.062A1.75,1.75,0,0,0,21.312,25.936Zm15.063,1.75H41a1.75,1.75,0,0,0,0-3.5H36.375a1.75,1.75,0,0,0,0,3.5ZM37.881,55.7a3.755,3.755,0,0,1-3.75,3.75H29.773a3.755,3.755,0,0,1-3.75-3.75V47.373a3.755,3.755,0,0,1,3.75-3.75h4.358a3.755,3.755,0,0,1,3.75,3.75Zm-3.5-8.328a.25.25,0,0,0-.25-.25H29.773a.251.251,0,0,0-.25.25V55.7a.251.251,0,0,0,.25.25h4.358a.251.251,0,0,0,.25-.25ZM53.9,55.7a3.754,3.754,0,0,1-3.75,3.75H45.8a3.754,3.754,0,0,1-3.75-3.75V47.373a3.754,3.754,0,0,1,3.75-3.75h4.356a3.754,3.754,0,0,1,3.75,3.75Zm-3.5-8.328a.25.25,0,0,0-.25-.25H45.8a.25.25,0,0,0-.25.25V55.7a.251.251,0,0,0,.25.25h4.356a.251.251,0,0,0,.25-.25ZM85.952,55.7a3.754,3.754,0,0,1-3.75,3.75H77.846A3.754,3.754,0,0,1,74.1,55.7V47.373a3.754,3.754,0,0,1,3.75-3.75H82.2a3.754,3.754,0,0,1,3.75,3.75Zm-3.5-8.328a.25.25,0,0,0-.25-.25H77.846a.25.25,0,0,0-.25.25V55.7a.251.251,0,0,0,.25.25H82.2a.251.251,0,0,0,.25-.25Zm35.548,0V55.7a3.755,3.755,0,0,1-3.75,3.75h-4.356a3.754,3.754,0,0,1-3.75-3.75V47.373a3.754,3.754,0,0,1,3.75-3.75h4.356A3.755,3.755,0,0,1,118,47.373Zm-3.5,0a.25.25,0,0,0-.25-.25h-4.356a.25.25,0,0,0-.25.25V55.7a.251.251,0,0,0,.25.25h4.356a.251.251,0,0,0,.25-.25ZM21.856,77.6a3.754,3.754,0,0,1-3.75,3.75H13.75A3.755,3.755,0,0,1,10,77.6V69.274a3.755,3.755,0,0,1,3.75-3.75h4.356a3.754,3.754,0,0,1,3.75,3.75Zm-3.5-8.327a.25.25,0,0,0-.25-.25H13.75a.25.25,0,0,0-.25.25V77.6a.25.25,0,0,0,.25.25h4.356a.25.25,0,0,0,.25-.25ZM37.881,77.6a3.755,3.755,0,0,1-3.75,3.75H29.773a3.755,3.755,0,0,1-3.75-3.75V69.274a3.755,3.755,0,0,1,3.75-3.75h4.358a3.755,3.755,0,0,1,3.75,3.75Zm-3.5-8.327a.25.25,0,0,0-.25-.25H29.773a.251.251,0,0,0-.25.25V77.6a.251.251,0,0,0,.25.25h4.358a.25.25,0,0,0,.25-.25ZM69.929,77.6a3.755,3.755,0,0,1-3.75,3.75H61.821a3.755,3.755,0,0,1-3.75-3.75V69.274a3.755,3.755,0,0,1,3.75-3.75h4.358a3.755,3.755,0,0,1,3.75,3.75Zm-3.5-8.327a.251.251,0,0,0-.25-.25H61.821a.251.251,0,0,0-.25.25V77.6a.251.251,0,0,0,.25.25h4.358a.251.251,0,0,0,.25-.25ZM85.952,77.6a3.754,3.754,0,0,1-3.75,3.75H77.846A3.754,3.754,0,0,1,74.1,77.6V69.274a3.754,3.754,0,0,1,3.75-3.75H82.2a3.754,3.754,0,0,1,3.75,3.75Zm-3.5-8.327a.25.25,0,0,0-.25-.25H77.846a.25.25,0,0,0-.25.25V77.6a.25.25,0,0,0,.25.25H82.2a.25.25,0,0,0,.25-.25ZM101.977,77.6a3.755,3.755,0,0,1-3.75,3.75H93.869a3.755,3.755,0,0,1-3.75-3.75V69.274a3.755,3.755,0,0,1,3.75-3.75h4.358a3.755,3.755,0,0,1,3.75,3.75Zm-3.5-8.327a.251.251,0,0,0-.25-.25H93.869a.25.25,0,0,0-.25.25V77.6a.25.25,0,0,0,.25.25h4.358a.251.251,0,0,0,.25-.25Zm-76.621,21.9V99.5a3.754,3.754,0,0,1-3.75,3.75H13.75A3.755,3.755,0,0,1,10,99.5V91.174a3.755,3.755,0,0,1,3.75-3.75h4.356A3.754,3.754,0,0,1,21.856,91.174Zm-3.5,0a.251.251,0,0,0-.25-.25H13.75a.251.251,0,0,0-.25.25V99.5a.25.25,0,0,0,.25.25h4.356a.25.25,0,0,0,.25-.25Zm19.525,0V99.5a3.755,3.755,0,0,1-3.75,3.75H29.773a3.755,3.755,0,0,1-3.75-3.75V91.174a3.755,3.755,0,0,1,3.75-3.75h4.358A3.755,3.755,0,0,1,37.881,91.174Zm-3.5,0a.251.251,0,0,0-.25-.25H29.773a.251.251,0,0,0-.25.25V99.5a.251.251,0,0,0,.25.25h4.358a.25.25,0,0,0,.25-.25Zm19.523,0V99.5a3.754,3.754,0,0,1-3.75,3.75H45.8a3.754,3.754,0,0,1-3.75-3.75V91.174a3.754,3.754,0,0,1,3.75-3.75h4.356A3.754,3.754,0,0,1,53.9,91.174Zm-3.5,0a.251.251,0,0,0-.25-.25H45.8a.251.251,0,0,0-.25.25V99.5a.25.25,0,0,0,.25.25h4.356a.25.25,0,0,0,.25-.25Zm51.573,0V99.5a3.755,3.755,0,0,1-3.75,3.75H93.869a3.755,3.755,0,0,1-3.75-3.75V91.174a3.755,3.755,0,0,1,3.75-3.75h4.358A3.755,3.755,0,0,1,101.977,91.174Zm-3.5,0a.251.251,0,0,0-.25-.25H93.869a.251.251,0,0,0-.25.25V99.5a.25.25,0,0,0,.25.25h4.358a.251.251,0,0,0,.25-.25Zm19.523,0V99.5a3.755,3.755,0,0,1-3.75,3.75h-4.356a3.754,3.754,0,0,1-3.75-3.75V91.174a3.754,3.754,0,0,1,3.75-3.75h4.356A3.755,3.755,0,0,1,118,91.174Zm-3.5,0a.251.251,0,0,0-.25-.25h-4.356a.251.251,0,0,0-.25.25V99.5a.25.25,0,0,0,.25.25h4.356a.25.25,0,0,0,.25-.25ZM20.106,55.951H17.679V45.373A1.749,1.749,0,0,0,14.846,44l-4.179,3.293a1.75,1.75,0,0,0,2.166,2.749l1.346-1.061v6.971H11.75a1.75,1.75,0,1,0,0,3.5h8.356a1.75,1.75,0,0,0,0-3.5Zm32.048,21.9H49.727V67.274A1.75,1.75,0,0,0,46.894,65.9l-4.179,3.294a1.75,1.75,0,0,0,2.166,2.749l1.346-1.061v6.97H43.8a1.75,1.75,0,0,0,0,3.5h8.356a1.75,1.75,0,0,0,0-3.5Zm7.667,21.9a1.75,1.75,0,1,0,0,3.5h8.358a1.75,1.75,0,0,0,0-3.5H65.75V89.174A1.75,1.75,0,0,0,62.917,87.8l-4.179,3.294A1.75,1.75,0,0,0,60.9,93.843l1.346-1.061v6.97Zm16.025,0a1.75,1.75,0,0,0,0,3.5H84.2a1.75,1.75,0,0,0,0-3.5H81.773V89.174A1.75,1.75,0,0,0,78.939,87.8l-4.177,3.294a1.75,1.75,0,0,0,2.168,2.748l1.343-1.059v6.969Zm40.4-21.9h-2.429V67.274a1.75,1.75,0,0,0-2.833-1.375l-4.177,3.294a1.75,1.75,0,0,0,2.166,2.749l1.344-1.06v6.969h-2.427a1.75,1.75,0,0,0,0,3.5h8.356a1.75,1.75,0,0,0,0-3.5Zm-48.071-21.9H65.75V45.373A1.749,1.749,0,0,0,62.917,44l-4.179,3.293A1.75,1.75,0,0,0,60.9,50.041L62.25,48.98v6.971H59.821a1.75,1.75,0,0,0,0,3.5h8.358a1.75,1.75,0,0,0,0-3.5Zm32.048,0H97.8V45.373A1.749,1.749,0,0,0,94.965,44l-4.179,3.293a1.75,1.75,0,0,0,2.166,2.749L94.3,48.98v6.971H91.869a1.75,1.75,0,0,0,0,3.5h8.358a1.75,1.75,0,0,0,0-3.5Z" fill="url(#a)"/></svg>
